<svg width="278" height="34" viewBox="0 0 278 34" fill="none" xmlns="http://www.w3.org/2000/svg">
<path d="M19.8586 34L15.0106 22.048H7.57063V34H0.75463V0.975999H16.3066C19.1546 0.975999 21.3146 1.408 22.7866 2.272C24.2906 3.104 25.2826 4.272 25.7626 5.776C26.2746 7.248 26.5306 9.152 26.5306 11.488C26.5306 16.704 24.9626 19.92 21.8266 21.136L27.1066 34H19.8586ZM13.5706 16.144C15.4266 16.144 16.7706 16.016 17.6026 15.76C18.4666 15.504 19.0106 15.072 19.2346 14.464C19.4906 13.824 19.6186 12.832 19.6186 11.488C19.6186 10.112 19.4906 9.12 19.2346 8.512C19.0106 7.904 18.4826 7.488 17.6506 7.264C16.8506 7.008 15.5066 6.88 13.6186 6.88H7.57063V16.144H13.5706Z" fill="#67DAF9"/>
<path d="M44.3728 34V0.975999H67.0768V6.88H51.1888V14.368H64.8208V20.272H51.1888V28.096H67.0768V34H44.3728ZM106.019 34L103.619 26.896H90.7554L88.4034 34H81.5394L92.7234 0.975999H101.891L113.075 34H106.019ZM97.2834 7.408H97.0434L92.5794 20.944H101.795L97.2834 7.408ZM133.216 34V7.168H123.616V0.975999H149.632V7.168H140.032V34H133.216ZM185.442 34V20.464H172.386V34H165.57V0.975999H172.386V14.32H185.442V0.975999H192.306V34H185.442ZM211.205 34V0.975999H233.909V6.88H218.021V14.368H231.653V20.272H218.021V28.096H233.909V34H211.205ZM270.739 34L265.891 22.048H258.451V34H251.635V0.975999H267.187C270.035 0.975999 272.195 1.408 273.667 2.272C275.171 3.104 276.163 4.272 276.643 5.776C277.155 7.248 277.411 9.152 277.411 11.488C277.411 16.704 275.843 19.92 272.707 21.136L277.987 34H270.739ZM264.451 16.144C266.307 16.144 267.651 16.016 268.483 15.76C269.347 15.504 269.891 15.072 270.115 14.464C270.371 13.824 270.499 12.832 270.499 11.488C270.499 10.112 270.371 9.12 270.115 8.512C269.891 7.904 269.363 7.488 268.531 7.264C267.731 7.008 266.387 6.88 264.499 6.88H258.451V16.144H264.451Z" fill="#E5E5E5"/>
</svg>
