<svg width="281" height="34" viewBox="0 0 281 34" fill="none" xmlns="http://www.w3.org/2000/svg">
<path d="M11.4971 34L0.985067 0.975999H7.99307L16.0091 26.32H16.2971L24.1691 0.975999H31.0811L20.5691 34H11.4971Z" fill="#44B885"/>
<path d="M46.9743 34V0.975999H69.6783V6.88H53.7903V14.368H67.4223V20.272H53.7903V28.096H69.6783V34H46.9743ZM108.621 34L106.221 26.896H93.3569L91.0049 34H84.1409L95.3249 0.975999H104.493L115.677 34H108.621ZM99.8849 7.408H99.6449L95.1809 20.944H104.397L99.8849 7.408ZM135.818 34V7.168H126.218V0.975999H152.234V7.168H142.634V34H135.818ZM188.043 34V20.464H174.987V34H168.171V0.975999H174.987V14.32H188.043V0.975999H194.907V34H188.043ZM213.806 34V0.975999H236.51V6.88H220.622V14.368H234.254V20.272H220.622V28.096H236.51V34H213.806ZM273.341 34L268.493 22.048H261.053V34H254.237V0.975999H269.789C272.637 0.975999 274.797 1.408 276.269 2.272C277.773 3.104 278.765 4.272 279.245 5.776C279.757 7.248 280.013 9.152 280.013 11.488C280.013 16.704 278.445 19.92 275.309 21.136L280.589 34H273.341ZM267.053 16.144C268.909 16.144 270.253 16.016 271.085 15.76C271.949 15.504 272.493 15.072 272.717 14.464C272.973 13.824 273.101 12.832 273.101 11.488C273.101 10.112 272.973 9.12 272.717 8.512C272.493 7.904 271.965 7.488 271.133 7.264C270.333 7.008 268.989 6.88 267.101 6.88H261.053V16.144H267.053Z" fill="#36495D"/>
</svg>
